<svg xmlns="http://www.w3.org/2000/svg" viewBox="0 0 32 32" role="img" aria-label="Mogotor">
  <defs>
    <linearGradient id="bg" x1="0" y1="0" x2="0" y2="1">
      <stop offset="0" stop-color="#0a0b0f"/>
      <stop offset="1" stop-color="#000000"/>
    </linearGradient>
    <linearGradient id="area" x1="0" y1="0" x2="0" y2="1">
      <stop offset="0" stop-color="#ff5e00" stop-opacity="0.32"/>
      <stop offset="1" stop-color="#ff5e00" stop-opacity="0"/>
    </linearGradient>
  </defs>

  <rect width="32" height="32" rx="7" fill="url(#bg)"/>

  <path
    d="M 4 21
       C 7 21, 8 17, 11 18
       C 14 19, 15 15, 18 16
       C 21 17, 22 13, 25 14
       C 27 15, 28 12, 28 12
       L 28 26 L 4 26 Z"
    fill="url(#area)"/>

  <path
    d="M 4 21
       C 7 21, 8 17, 11 18
       C 14 19, 15 15, 18 16
       C 21 17, 22 13, 25 14
       C 27 15, 28 12, 28 12"
    fill="none"
    stroke="#ff5e00"
    stroke-width="2"
    stroke-linecap="round"
    stroke-linejoin="round"/>
</svg>
